<svg width="235" height="130" viewBox="0 0 235 130" fill="none" xmlns="http://www.w3.org/2000/svg">
<circle cx="9" cy="57" r="7" fill="#C0A67B"/>
<circle cx="9" cy="57" r="3" fill="white"/>
<path d="M30.1953 60.5156C30.1953 60.6927 30.2214 60.8411 30.2734 60.9609C30.3307 61.0807 30.4089 61.1771 30.5078 61.25C30.612 61.3229 30.737 61.375 30.8828 61.4062C31.0339 61.4375 31.2005 61.4531 31.3828 61.4531C31.4245 61.4531 31.4453 61.474 31.4453 61.5156V61.9375C31.4453 61.9531 31.4427 61.9688 31.4375 61.9844C31.4323 61.9948 31.4141 62 31.3828 62H26.7656C26.7396 62 26.7214 61.9922 26.7109 61.9766C26.7057 61.9609 26.7031 61.9479 26.7031 61.9375V61.5156C26.7031 61.5052 26.7057 61.4922 26.7109 61.4766C26.7214 61.4609 26.7396 61.4531 26.7656 61.4531C26.9479 61.4531 27.112 61.4427 27.2578 61.4219C27.4089 61.3958 27.5365 61.3438 27.6406 61.2656C27.7448 61.1875 27.8255 61.0755 27.8828 60.9297C27.9401 60.7839 27.9688 60.5859 27.9688 60.3359V52.4688C27.9688 52.2917 27.9401 52.1432 27.8828 52.0234C27.8307 51.9036 27.7526 51.8073 27.6484 51.7344C27.5495 51.6615 27.4245 51.6094 27.2734 51.5781C27.1276 51.5469 26.9635 51.5312 26.7812 51.5312C26.7396 51.5312 26.7188 51.5104 26.7188 51.4688V51.0469C26.7188 51.0052 26.7396 50.9844 26.7812 50.9844H31.3984C31.4245 50.9844 31.4401 50.9922 31.4453 51.0078C31.4557 51.0234 31.4609 51.0365 31.4609 51.0469V51.4688C31.4609 51.4792 31.4557 51.4922 31.4453 51.5078C31.4401 51.5234 31.4245 51.5312 31.3984 51.5312C31.2161 51.5312 31.0495 51.5443 30.8984 51.5703C30.7526 51.5911 30.6276 51.6406 30.5234 51.7188C30.4193 51.7969 30.3385 51.9089 30.2812 52.0547C30.224 52.2005 30.1953 52.3984 30.1953 52.6484V60.5156ZM35.3516 54.4219C35.3724 54.4115 35.3932 54.401 35.4141 54.3906C35.4401 54.3802 35.4583 54.375 35.4688 54.375C35.5573 54.375 35.6016 54.4375 35.6016 54.5625V55.7812C35.6172 55.8333 35.638 55.8594 35.6641 55.8594C35.6901 55.8594 35.7109 55.8594 35.7266 55.8594C35.7422 55.8542 35.763 55.8438 35.7891 55.8281C36.1224 55.6562 36.4036 55.513 36.6328 55.3984C36.8672 55.2786 37.0677 55.1797 37.2344 55.1016C37.4062 55.0182 37.5573 54.9557 37.6875 54.9141C37.8229 54.8672 37.9583 54.8333 38.0938 54.8125C38.2292 54.7865 38.3776 54.7708 38.5391 54.7656C38.7005 54.7604 38.8984 54.7578 39.1328 54.7578C39.388 54.7578 39.6094 54.8125 39.7969 54.9219C39.9844 55.0312 40.1406 55.1771 40.2656 55.3594C40.3958 55.5365 40.5 55.7422 40.5781 55.9766C40.6615 56.2057 40.724 56.4427 40.7656 56.6875C40.8073 56.9271 40.8359 57.1667 40.8516 57.4062C40.8672 57.6406 40.875 57.8542 40.875 58.0469C40.875 58.2292 40.8698 58.3984 40.8594 58.5547C40.8542 58.7109 40.8464 58.8828 40.8359 59.0703C40.8307 59.2526 40.8229 59.4609 40.8125 59.6953C40.8073 59.9297 40.8047 60.2135 40.8047 60.5469C40.8047 60.7031 40.8333 60.8333 40.8906 60.9375C40.9479 61.0417 41.0208 61.1276 41.1094 61.1953C41.2031 61.263 41.3047 61.3151 41.4141 61.3516C41.5234 61.3828 41.6302 61.4089 41.7344 61.4297C41.8385 61.4505 41.9323 61.4688 42.0156 61.4844C42.1042 61.4948 42.1719 61.5104 42.2188 61.5312C42.2396 61.5417 42.2578 61.5755 42.2734 61.6328C42.2891 61.6901 42.2969 61.7318 42.2969 61.7578C42.2969 61.7891 42.2917 61.8359 42.2812 61.8984C42.2708 61.9557 42.25 61.9896 42.2188 62H37.8594C37.8281 61.9896 37.8073 61.9557 37.7969 61.8984C37.7865 61.8359 37.7812 61.7891 37.7812 61.7578C37.7812 61.7318 37.7891 61.6901 37.8047 61.6328C37.8203 61.5755 37.8385 61.5417 37.8594 61.5312C37.9271 61.5 38.0156 61.4766 38.125 61.4609C38.2396 61.4401 38.3542 61.3984 38.4688 61.3359C38.5885 61.2734 38.6953 61.1797 38.7891 61.0547C38.888 60.9245 38.9531 60.7344 38.9844 60.4844C38.9948 60.4062 39.0026 60.3333 39.0078 60.2656C39.0182 60.1979 39.026 60.1302 39.0312 60.0625C39.0365 59.9896 39.0391 59.9115 39.0391 59.8281C39.0443 59.7448 39.0469 59.6484 39.0469 59.5391C39.0469 59.3047 39.0443 59.0547 39.0391 58.7891C39.0339 58.5234 39.0312 58.2266 39.0312 57.8984C39.0312 57.6432 39.0182 57.3906 38.9922 57.1406C38.9714 56.8906 38.9141 56.6667 38.8203 56.4688C38.7318 56.2708 38.599 56.1094 38.4219 55.9844C38.2448 55.8594 38 55.7969 37.6875 55.7969C37.5781 55.7969 37.4792 55.8047 37.3906 55.8203C37.3073 55.8307 37.2031 55.8594 37.0781 55.9062C36.9583 55.9531 36.7995 56.0234 36.6016 56.1172C36.4036 56.2109 36.138 56.3385 35.8047 56.5C35.763 56.526 35.7188 56.5573 35.6719 56.5938C35.6302 56.625 35.6068 56.6667 35.6016 56.7188V60.5469C35.6016 60.7812 35.6484 60.9609 35.7422 61.0859C35.8359 61.2057 35.9453 61.2943 36.0703 61.3516C36.1953 61.4036 36.3203 61.4401 36.4453 61.4609C36.5703 61.4766 36.6667 61.5 36.7344 61.5312C36.7552 61.5417 36.7734 61.5755 36.7891 61.6328C36.8047 61.6901 36.8125 61.7318 36.8125 61.7578C36.8125 61.7891 36.8073 61.8359 36.7969 61.8984C36.7865 61.9557 36.7656 61.9896 36.7344 62H32.6562C32.625 61.9896 32.6042 61.9557 32.5938 61.8984C32.5833 61.8359 32.5781 61.7891 32.5781 61.7578C32.5781 61.7318 32.5859 61.6901 32.6016 61.6328C32.6172 61.5755 32.6354 61.5417 32.6562 61.5312C32.724 61.5 32.8203 61.4766 32.9453 61.4609C33.0703 61.4401 33.1953 61.4036 33.3203 61.3516C33.4453 61.2943 33.5547 61.2057 33.6484 61.0859C33.7422 60.9609 33.7891 60.7812 33.7891 60.5469V56.5781C33.7891 56.4531 33.7552 56.3568 33.6875 56.2891C33.6198 56.2161 33.5339 56.1615 33.4297 56.125C33.3255 56.0885 33.2135 56.0599 33.0938 56.0391C32.974 56.013 32.8594 55.9844 32.75 55.9531C32.7188 55.9427 32.6927 55.9297 32.6719 55.9141C32.6562 55.8932 32.6484 55.8542 32.6484 55.7969C32.6484 55.7708 32.6562 55.7448 32.6719 55.7188C32.6875 55.6927 32.7188 55.6667 32.7656 55.6406L35.3516 54.4219ZM45.4609 62.2109C45.4193 62.2109 45.3828 62.1797 45.3516 62.1172C45.3255 62.0599 45.3047 62.0104 45.2891 61.9688L43.1719 56.2266C43.0833 55.987 42.9557 55.7786 42.7891 55.6016C42.6224 55.4193 42.4193 55.2891 42.1797 55.2109C42.1432 55.2005 42.099 55.1927 42.0469 55.1875C41.9948 55.1823 41.9427 55.1745 41.8906 55.1641C41.8438 55.1536 41.8021 55.1354 41.7656 55.1094C41.7344 55.0833 41.7188 55.0417 41.7188 54.9844C41.7188 54.9323 41.7318 54.8854 41.7578 54.8438C41.7839 54.7969 41.8281 54.7734 41.8906 54.7734H46C46.0312 54.7734 46.0521 54.8021 46.0625 54.8594C46.0729 54.9115 46.0781 54.9453 46.0781 54.9609C46.0781 55.0339 46.0495 55.0833 45.9922 55.1094C45.9349 55.1302 45.862 55.1432 45.7734 55.1484C45.6849 55.1536 45.5911 55.1562 45.4922 55.1562C45.3932 55.151 45.2995 55.1615 45.2109 55.1875C45.1224 55.2135 45.0495 55.2604 44.9922 55.3281C44.9349 55.3906 44.9062 55.4896 44.9062 55.625C44.9062 55.6406 44.9141 55.6745 44.9297 55.7266C44.9453 55.7734 44.9531 55.8021 44.9531 55.8125L46.5078 60.0625C46.5182 60.0885 46.5339 60.1276 46.5547 60.1797C46.5807 60.2266 46.6146 60.25 46.6562 60.25C46.6771 60.25 46.6979 60.2396 46.7188 60.2188C46.7448 60.1927 46.7656 60.1641 46.7812 60.1328C46.7969 60.1016 46.8099 60.0729 46.8203 60.0469C46.8307 60.0156 46.8385 59.9948 46.8438 59.9844C47.0885 59.3594 47.2943 58.8333 47.4609 58.4062C47.6276 57.974 47.7656 57.6146 47.875 57.3281C47.9844 57.0417 48.0677 56.8177 48.125 56.6562C48.1875 56.4896 48.2318 56.362 48.2578 56.2734C48.2839 56.1849 48.2995 56.1224 48.3047 56.0859C48.3099 56.0443 48.3125 56.0052 48.3125 55.9688C48.3125 55.7865 48.2552 55.638 48.1406 55.5234C48.026 55.4036 47.8854 55.3125 47.7188 55.25C47.6719 55.2396 47.612 55.2344 47.5391 55.2344C47.4714 55.2344 47.4036 55.2292 47.3359 55.2188C47.2734 55.2083 47.2161 55.1875 47.1641 55.1562C47.1172 55.125 47.0938 55.0729 47.0938 55C47.0938 54.9583 47.1146 54.9167 47.1562 54.875C47.1979 54.8333 47.2396 54.8125 47.2812 54.8125H50.3984C50.4297 54.8177 50.4479 54.8385 50.4531 54.875C50.4635 54.9062 50.4688 54.9505 50.4688 55.0078C50.4688 55.0443 50.4635 55.0729 50.4531 55.0938C50.4427 55.1094 50.4167 55.125 50.375 55.1406C50.3385 55.151 50.2839 55.1615 50.2109 55.1719C50.1432 55.1823 50.0521 55.1979 49.9375 55.2188C49.8229 55.2396 49.7214 55.2943 49.6328 55.3828C49.5495 55.4661 49.4714 55.5651 49.3984 55.6797C49.3307 55.7943 49.2708 55.9141 49.2188 56.0391C49.1667 56.1589 49.1172 56.2682 49.0703 56.3672C48.7161 57.2734 48.4167 58.0417 48.1719 58.6719C47.9323 59.3021 47.7318 59.8255 47.5703 60.2422C47.4089 60.6589 47.2812 60.9844 47.1875 61.2188C47.099 61.4479 47.0312 61.6198 46.9844 61.7344C46.9375 61.849 46.9089 61.9193 46.8984 61.9453C46.888 61.9714 46.8828 61.9844 46.8828 61.9844C46.8672 62.0208 46.8438 62.0677 46.8125 62.125C46.7865 62.1823 46.7526 62.2109 46.7109 62.2109H45.4609ZM50.3594 58.8359C50.3594 58.2266 50.4453 57.6667 50.6172 57.1562C50.7891 56.6406 51.0365 56.1953 51.3594 55.8203C51.6823 55.4453 52.0755 55.1536 52.5391 54.9453C53.0078 54.737 53.5391 54.6328 54.1328 54.6328C54.3099 54.6328 54.4688 54.6458 54.6094 54.6719C54.75 54.6927 54.8776 54.724 54.9922 54.7656C55.112 54.8021 55.2214 54.849 55.3203 54.9062C55.4245 54.9583 55.5286 55.0156 55.6328 55.0781C55.7526 55.1406 55.888 55.2526 56.0391 55.4141C56.1953 55.5755 56.3411 55.763 56.4766 55.9766C56.612 56.1901 56.7266 56.4193 56.8203 56.6641C56.9141 56.9036 56.9609 57.1354 56.9609 57.3594C56.9609 57.4323 56.9453 57.513 56.9141 57.6016C56.888 57.6849 56.8411 57.7266 56.7734 57.7266H52.1641C52.112 57.7266 52.0755 57.7734 52.0547 57.8672C52.0391 57.9609 52.0312 58.0755 52.0312 58.2109C52.0312 58.6693 52.0964 59.0781 52.2266 59.4375C52.362 59.7917 52.5417 60.0938 52.7656 60.3438C52.9896 60.5885 53.2474 60.776 53.5391 60.9062C53.8307 61.0312 54.138 61.0938 54.4609 61.0938C54.6641 61.0938 54.8594 61.0677 55.0469 61.0156C55.2344 60.9583 55.4141 60.8854 55.5859 60.7969C55.7578 60.7083 55.9193 60.6094 56.0703 60.5C56.2214 60.3906 56.3646 60.2812 56.5 60.1719C56.5312 60.1615 56.5521 60.1562 56.5625 60.1562C56.5781 60.1562 56.599 60.1693 56.625 60.1953C56.6719 60.237 56.7188 60.2865 56.7656 60.3438C56.8125 60.3958 56.849 60.4401 56.875 60.4766C56.8906 60.4922 56.8984 60.5078 56.8984 60.5234C56.8984 60.5391 56.888 60.5573 56.8672 60.5781C56.6953 60.7812 56.4844 60.9818 56.2344 61.1797C55.9844 61.3724 55.7161 61.5469 55.4297 61.7031C55.1484 61.8542 54.8594 61.9766 54.5625 62.0703C54.2656 62.1641 53.9844 62.2109 53.7188 62.2109C53.1823 62.2109 52.7057 62.1146 52.2891 61.9219C51.8724 61.724 51.5208 61.4661 51.2344 61.1484C50.9479 60.8307 50.7292 60.4714 50.5781 60.0703C50.4323 59.6641 50.3594 59.2526 50.3594 58.8359ZM54.9453 57.125C55.0807 57.125 55.1484 57.0651 55.1484 56.9453C55.1484 56.7422 55.1146 56.5521 55.0469 56.375C54.9844 56.1927 54.8932 56.0339 54.7734 55.8984C54.6536 55.7578 54.5078 55.6484 54.3359 55.5703C54.1693 55.4922 53.9818 55.4531 53.7734 55.4531C53.5234 55.4531 53.3047 55.5078 53.1172 55.6172C52.9297 55.7214 52.7708 55.849 52.6406 56C52.5104 56.151 52.4115 56.3073 52.3438 56.4688C52.2812 56.6302 52.25 56.7682 52.25 56.8828C52.25 56.9714 52.263 57.0339 52.2891 57.0703C52.3151 57.1068 52.349 57.125 52.3906 57.125H54.9453ZM59.2734 61.9531C59.2266 61.9531 59.1849 61.9661 59.1484 61.9922C59.112 62.0182 59.0755 62.0469 59.0391 62.0781C59.0078 62.1146 58.9766 62.1458 58.9453 62.1719C58.9141 62.1979 58.8776 62.2109 58.8359 62.2109H58.5547C58.5443 62.2109 58.5286 62.1354 58.5078 61.9844C58.487 61.8333 58.4635 61.6536 58.4375 61.4453C58.4167 61.2318 58.3984 61.013 58.3828 60.7891C58.3672 60.5599 58.3594 60.3698 58.3594 60.2188C58.3594 60.1354 58.388 60.0833 58.4453 60.0625C58.5078 60.0365 58.5729 60.0234 58.6406 60.0234C58.6771 60.0234 58.7161 60.0365 58.7578 60.0625C58.8047 60.0885 58.8464 60.1224 58.8828 60.1641C58.9245 60.2005 58.9609 60.2396 58.9922 60.2812C59.0234 60.3229 59.0469 60.3594 59.0625 60.3906C59.151 60.5833 59.2396 60.7578 59.3281 60.9141C59.4167 61.0703 59.5182 61.2031 59.6328 61.3125C59.7474 61.4219 59.8828 61.5078 60.0391 61.5703C60.1953 61.6276 60.3828 61.6562 60.6016 61.6562C60.7682 61.6562 60.9036 61.6276 61.0078 61.5703C61.112 61.513 61.1927 61.4375 61.25 61.3438C61.3073 61.25 61.3438 61.1432 61.3594 61.0234C61.3802 60.9036 61.3906 60.7786 61.3906 60.6484C61.3906 60.388 61.3125 60.1693 61.1562 59.9922C61 59.8099 60.8047 59.6406 60.5703 59.4844C60.3411 59.3281 60.0885 59.1693 59.8125 59.0078C59.5417 58.8464 59.2891 58.6589 59.0547 58.4453C58.8255 58.2318 58.6328 57.9792 58.4766 57.6875C58.3203 57.3906 58.2422 57.026 58.2422 56.5938C58.2422 56.3438 58.3203 56.1016 58.4766 55.8672C58.6328 55.6276 58.8359 55.4167 59.0859 55.2344C59.3359 55.0521 59.6146 54.9062 59.9219 54.7969C60.2344 54.6875 60.5443 54.6328 60.8516 54.6328C61.013 54.6328 61.1745 54.6484 61.3359 54.6797C61.5026 54.7057 61.6536 54.737 61.7891 54.7734C61.9297 54.8099 62.0469 54.8464 62.1406 54.8828C62.2396 54.9193 62.3021 54.9453 62.3281 54.9609C62.3646 54.987 62.3932 55.0286 62.4141 55.0859C62.4401 55.138 62.4557 55.224 62.4609 55.3438C62.4714 55.4635 62.4766 55.625 62.4766 55.8281C62.4818 56.026 62.4844 56.2865 62.4844 56.6094C62.4844 56.6979 62.4505 56.763 62.3828 56.8047C62.3203 56.8411 62.2578 56.8594 62.1953 56.8594C62.138 56.8594 62.0807 56.849 62.0234 56.8281C61.9714 56.8073 61.9375 56.7734 61.9219 56.7266C61.8594 56.5651 61.7891 56.4036 61.7109 56.2422C61.6328 56.0755 61.5417 55.9271 61.4375 55.7969C61.3385 55.6615 61.2214 55.5547 61.0859 55.4766C60.9505 55.3932 60.7943 55.3516 60.6172 55.3516C60.513 55.3516 60.4089 55.3646 60.3047 55.3906C60.2005 55.4167 60.1068 55.4688 60.0234 55.5469C59.9401 55.6198 59.8724 55.7214 59.8203 55.8516C59.7734 55.9818 59.75 56.1484 59.75 56.3516C59.75 56.5286 59.8307 56.6927 59.9922 56.8438C60.1589 56.9948 60.3646 57.1484 60.6094 57.3047C60.8542 57.4557 61.1198 57.6198 61.4062 57.7969C61.6979 57.974 61.9661 58.1771 62.2109 58.4062C62.4557 58.6354 62.6589 58.901 62.8203 59.2031C62.987 59.5 63.0703 59.8516 63.0703 60.2578C63.0703 60.5599 62.9922 60.8333 62.8359 61.0781C62.6797 61.3177 62.4792 61.5208 62.2344 61.6875C61.9896 61.8542 61.7161 61.9818 61.4141 62.0703C61.1172 62.1641 60.8255 62.2109 60.5391 62.2109C60.3932 62.2109 60.2474 62.1979 60.1016 62.1719C59.9557 62.1458 59.8229 62.1146 59.7031 62.0781C59.5833 62.0469 59.4844 62.0182 59.4062 61.9922C59.3281 61.9661 59.2839 61.9531 59.2734 61.9531ZM64.8359 55.9766H64.25C64.1771 55.9766 64.1198 55.9583 64.0781 55.9219C64.0365 55.8854 64.013 55.8464 64.0078 55.8047C64.0078 55.7786 64.013 55.75 64.0234 55.7188C64.0339 55.6875 64.0469 55.6667 64.0625 55.6562C64.1667 55.5885 64.2786 55.5104 64.3984 55.4219C64.5234 55.3281 64.6458 55.2318 64.7656 55.1328C64.8854 55.0339 65.0026 54.9349 65.1172 54.8359C65.2318 54.737 65.3333 54.6458 65.4219 54.5625C65.474 54.5052 65.5443 54.4193 65.6328 54.3047C65.7266 54.1901 65.8307 54.0781 65.9453 53.9688C66.0651 53.8542 66.1927 53.7552 66.3281 53.6719C66.4635 53.5833 66.6016 53.5391 66.7422 53.5391C66.7734 53.5391 66.8099 53.5495 66.8516 53.5703C66.8932 53.5911 66.9141 53.6172 66.9141 53.6484C66.9141 53.6849 66.9036 53.7422 66.8828 53.8203C66.8672 53.8932 66.8464 53.9766 66.8203 54.0703C66.7943 54.1641 66.7656 54.263 66.7344 54.3672C66.7031 54.4714 66.6745 54.5729 66.6484 54.6719C66.6484 54.7135 66.6536 54.7474 66.6641 54.7734C66.6797 54.7995 66.7161 54.8151 66.7734 54.8203H68.7656C68.849 54.8203 68.9062 54.8359 68.9375 54.8672C68.9688 54.8932 68.9922 54.9297 69.0078 54.9766C69.0182 55.0026 69.0286 55.0573 69.0391 55.1406C69.0495 55.2188 69.0599 55.3073 69.0703 55.4062C69.0807 55.5 69.0885 55.5964 69.0938 55.6953C69.1042 55.7891 69.1094 55.8672 69.1094 55.9297C69.1094 55.9609 69.0885 55.9766 69.0469 55.9766H66.6953C66.6693 55.9766 66.6536 55.9818 66.6484 55.9922C66.6484 56.0026 66.6484 56.0208 66.6484 56.0469V59.9297C66.6484 60.0964 66.6693 60.2422 66.7109 60.3672C66.7526 60.4922 66.8047 60.5964 66.8672 60.6797C66.9349 60.763 67.0104 60.8255 67.0938 60.8672C67.1771 60.9089 67.2604 60.9297 67.3438 60.9297C67.5833 60.9297 67.7786 60.8958 67.9297 60.8281C68.0807 60.7552 68.2109 60.6771 68.3203 60.5938C68.4297 60.5104 68.526 60.4349 68.6094 60.3672C68.6927 60.2943 68.7865 60.2578 68.8906 60.2578C68.9635 60.2578 69.0052 60.2865 69.0156 60.3438C69.0312 60.401 69.0391 60.4453 69.0391 60.4766C69.0391 60.5443 69.0286 60.599 69.0078 60.6406C68.9922 60.6771 68.9792 60.7057 68.9688 60.7266C68.9635 60.737 68.9349 60.7812 68.8828 60.8594C68.8307 60.9375 68.7604 61.0312 68.6719 61.1406C68.5833 61.25 68.474 61.3672 68.3438 61.4922C68.2188 61.6172 68.0781 61.7344 67.9219 61.8438C67.7656 61.9479 67.5938 62.0339 67.4062 62.1016C67.224 62.1745 67.0312 62.2109 66.8281 62.2109C66.5469 62.2109 66.2839 62.1589 66.0391 62.0547C65.7943 61.9505 65.5833 61.8125 65.4062 61.6406C65.2292 61.4635 65.0885 61.263 64.9844 61.0391C64.8854 60.8151 64.8359 60.5833 64.8359 60.3438V55.9766ZM76.7891 54.4219C76.8099 54.4115 76.8307 54.401 76.8516 54.3906C76.8776 54.3802 76.8958 54.375 76.9062 54.375C76.9948 54.375 77.0391 54.4375 77.0391 54.5625V55.7812C77.0547 55.8333 77.0755 55.8594 77.1016 55.8594C77.1276 55.8594 77.1484 55.8594 77.1641 55.8594C77.1797 55.8542 77.2005 55.8438 77.2266 55.8281C77.5599 55.6562 77.8411 55.513 78.0703 55.3984C78.3047 55.2786 78.5052 55.1797 78.6719 55.1016C78.8438 55.0182 78.9948 54.9557 79.125 54.9141C79.2604 54.8672 79.3958 54.8333 79.5312 54.8125C79.6667 54.7865 79.8151 54.7708 79.9766 54.7656C80.138 54.7604 80.3359 54.7578 80.5703 54.7578C80.8255 54.7578 81.0469 54.8125 81.2344 54.9219C81.4219 55.0312 81.5781 55.1771 81.7031 55.3594C81.8333 55.5365 81.9375 55.7422 82.0156 55.9766C82.099 56.2057 82.1615 56.4427 82.2031 56.6875C82.2448 56.9271 82.2734 57.1667 82.2891 57.4062C82.3047 57.6406 82.3125 57.8542 82.3125 58.0469C82.3125 58.2292 82.3073 58.3984 82.2969 58.5547C82.2917 58.7109 82.2839 58.8828 82.2734 59.0703C82.2682 59.2526 82.2604 59.4609 82.25 59.6953C82.2448 59.9297 82.2422 60.2135 82.2422 60.5469C82.2422 60.7031 82.2708 60.8333 82.3281 60.9375C82.3854 61.0417 82.4583 61.1276 82.5469 61.1953C82.6406 61.263 82.7422 61.3151 82.8516 61.3516C82.9609 61.3828 83.0677 61.4089 83.1719 61.4297C83.276 61.4505 83.3698 61.4688 83.4531 61.4844C83.5417 61.4948 83.6094 61.5104 83.6562 61.5312C83.6771 61.5417 83.6953 61.5755 83.7109 61.6328C83.7266 61.6901 83.7344 61.7318 83.7344 61.7578C83.7344 61.7891 83.7292 61.8359 83.7188 61.8984C83.7083 61.9557 83.6875 61.9896 83.6562 62H79.2969C79.2656 61.9896 79.2448 61.9557 79.2344 61.8984C79.224 61.8359 79.2188 61.7891 79.2188 61.7578C79.2188 61.7318 79.2266 61.6901 79.2422 61.6328C79.2578 61.5755 79.276 61.5417 79.2969 61.5312C79.3646 61.5 79.4531 61.4766 79.5625 61.4609C79.6771 61.4401 79.7917 61.3984 79.9062 61.3359C80.026 61.2734 80.1328 61.1797 80.2266 61.0547C80.3255 60.9245 80.3906 60.7344 80.4219 60.4844C80.4323 60.4062 80.4401 60.3333 80.4453 60.2656C80.4557 60.1979 80.4635 60.1302 80.4688 60.0625C80.474 59.9896 80.4766 59.9115 80.4766 59.8281C80.4818 59.7448 80.4844 59.6484 80.4844 59.5391C80.4844 59.3047 80.4818 59.0547 80.4766 58.7891C80.4714 58.5234 80.4688 58.2266 80.4688 57.8984C80.4688 57.6432 80.4557 57.3906 80.4297 57.1406C80.4089 56.8906 80.3516 56.6667 80.2578 56.4688C80.1693 56.2708 80.0365 56.1094 79.8594 55.9844C79.6823 55.8594 79.4375 55.7969 79.125 55.7969C79.0156 55.7969 78.9167 55.8047 78.8281 55.8203C78.7448 55.8307 78.6406 55.8594 78.5156 55.9062C78.3958 55.9531 78.237 56.0234 78.0391 56.1172C77.8411 56.2109 77.5755 56.3385 77.2422 56.5C77.2005 56.526 77.1562 56.5573 77.1094 56.5938C77.0677 56.625 77.0443 56.6667 77.0391 56.7188V60.5469C77.0391 60.7812 77.0859 60.9609 77.1797 61.0859C77.2734 61.2057 77.3828 61.2943 77.5078 61.3516C77.6328 61.4036 77.7578 61.4401 77.8828 61.4609C78.0078 61.4766 78.1042 61.5 78.1719 61.5312C78.1927 61.5417 78.2109 61.5755 78.2266 61.6328C78.2422 61.6901 78.25 61.7318 78.25 61.7578C78.25 61.7891 78.2448 61.8359 78.2344 61.8984C78.224 61.9557 78.2031 61.9896 78.1719 62H74.0938C74.0625 61.9896 74.0417 61.9557 74.0312 61.8984C74.0208 61.8359 74.0156 61.7891 74.0156 61.7578C74.0156 61.7318 74.0234 61.6901 74.0391 61.6328C74.0547 61.5755 74.0729 61.5417 74.0938 61.5312C74.1615 61.5 74.2578 61.4766 74.3828 61.4609C74.5078 61.4401 74.6328 61.4036 74.7578 61.3516C74.8828 61.2943 74.9922 61.2057 75.0859 61.0859C75.1797 60.9609 75.2266 60.7812 75.2266 60.5469V56.5781C75.2266 56.4531 75.1927 56.3568 75.125 56.2891C75.0573 56.2161 74.9714 56.1615 74.8672 56.125C74.763 56.0885 74.651 56.0599 74.5312 56.0391C74.4115 56.013 74.2969 55.9844 74.1875 55.9531C74.1562 55.9427 74.1302 55.9297 74.1094 55.9141C74.0938 55.8932 74.0859 55.8542 74.0859 55.7969C74.0859 55.7708 74.0938 55.7448 74.1094 55.7188C74.125 55.6927 74.1562 55.6667 74.2031 55.6406L76.7891 54.4219ZM84.4766 58.3516C84.4766 57.862 84.5833 57.3932 84.7969 56.9453C85.0156 56.4974 85.3073 56.1016 85.6719 55.7578C86.0365 55.4141 86.4609 55.1406 86.9453 54.9375C87.4297 54.7344 87.9401 54.6328 88.4766 54.6328C89.0391 54.6328 89.5729 54.7292 90.0781 54.9219C90.5833 55.1146 91.026 55.3802 91.4062 55.7188C91.7917 56.0521 92.0964 56.4479 92.3203 56.9062C92.5443 57.3594 92.6562 57.8516 92.6562 58.3828C92.6562 58.9245 92.5521 59.4297 92.3438 59.8984C92.1406 60.362 91.8568 60.7656 91.4922 61.1094C91.1276 61.4531 90.6927 61.724 90.1875 61.9219C89.6875 62.1146 89.1406 62.2109 88.5469 62.2109C87.9583 62.2109 87.4141 62.112 86.9141 61.9141C86.4193 61.7109 85.9896 61.4375 85.625 61.0938C85.2656 60.7448 84.9844 60.3359 84.7812 59.8672C84.5781 59.3984 84.4766 58.8932 84.4766 58.3516ZM86.4766 57.8594C86.4766 58.1406 86.4974 58.4323 86.5391 58.7344C86.5807 59.0312 86.6432 59.3229 86.7266 59.6094C86.8099 59.8906 86.9141 60.1562 87.0391 60.4062C87.1693 60.6562 87.3229 60.8776 87.5 61.0703C87.6771 61.2578 87.8776 61.4062 88.1016 61.5156C88.3255 61.625 88.5781 61.6797 88.8594 61.6797C89.1667 61.6797 89.4297 61.6016 89.6484 61.4453C89.8724 61.2839 90.0547 61.0755 90.1953 60.8203C90.3411 60.5651 90.4479 60.2786 90.5156 59.9609C90.5833 59.6432 90.6172 59.3255 90.6172 59.0078C90.6172 58.7526 90.5938 58.4844 90.5469 58.2031C90.5 57.9167 90.4297 57.6354 90.3359 57.3594C90.2422 57.0781 90.1276 56.8099 89.9922 56.5547C89.8568 56.2995 89.6979 56.0755 89.5156 55.8828C89.3385 55.6849 89.138 55.5286 88.9141 55.4141C88.6953 55.2995 88.4557 55.2422 88.1953 55.2422C87.9036 55.2422 87.6484 55.3229 87.4297 55.4844C87.2161 55.6406 87.0391 55.8464 86.8984 56.1016C86.7578 56.3516 86.651 56.6328 86.5781 56.9453C86.5104 57.2526 86.4766 57.5573 86.4766 57.8594ZM96.1328 62.2109C96.0911 62.2109 96.0547 62.1797 96.0234 62.1172C95.9974 62.0599 95.9766 62.0104 95.9609 61.9688L93.8906 56.3672C93.8021 56.1276 93.6745 55.9193 93.5078 55.7422C93.3411 55.5599 93.138 55.4297 92.8984 55.3516C92.862 55.3411 92.8177 55.3307 92.7656 55.3203C92.7135 55.3047 92.6615 55.2865 92.6094 55.2656C92.5625 55.2448 92.5208 55.2188 92.4844 55.1875C92.4531 55.151 92.4375 55.1042 92.4375 55.0469C92.4375 54.9948 92.4531 54.9427 92.4844 54.8906C92.5156 54.8385 92.5625 54.8125 92.625 54.8125H96.7266C96.7578 54.8125 96.776 54.8438 96.7812 54.9062C96.7865 54.9688 96.7891 55.0078 96.7891 55.0234C96.7891 55.0964 96.7604 55.1484 96.7031 55.1797C96.6458 55.2057 96.5755 55.224 96.4922 55.2344C96.4089 55.2396 96.3177 55.2474 96.2188 55.2578C96.1198 55.263 96.0286 55.2812 95.9453 55.3125C95.862 55.3385 95.7917 55.388 95.7344 55.4609C95.6771 55.5286 95.6484 55.6302 95.6484 55.7656C95.6484 55.7812 95.651 55.8151 95.6562 55.8672C95.6615 55.9141 95.6641 55.9427 95.6641 55.9531L97.1719 60.0547C97.1823 60.0807 97.1979 60.1198 97.2188 60.1719C97.2448 60.2188 97.2786 60.2422 97.3203 60.2422C97.3411 60.2422 97.362 60.2318 97.3828 60.2109C97.4089 60.1849 97.4297 60.1562 97.4453 60.125C97.4609 60.0938 97.474 60.0651 97.4844 60.0391C97.4948 60.0078 97.5026 59.987 97.5078 59.9766L98.8672 56.3672C98.7786 56.1276 98.651 55.9193 98.4844 55.7422C98.3177 55.5599 98.1146 55.4297 97.875 55.3516C97.8385 55.3411 97.7943 55.3307 97.7422 55.3203C97.6901 55.3047 97.638 55.2865 97.5859 55.2656C97.5391 55.2448 97.4974 55.2188 97.4609 55.1875C97.4297 55.151 97.4141 55.1042 97.4141 55.0469C97.4141 54.9948 97.4297 54.9427 97.4609 54.8906C97.4922 54.8385 97.5391 54.8125 97.6016 54.8125H101.711C101.742 54.8125 101.76 54.8438 101.766 54.9062C101.771 54.9688 101.773 55.0078 101.773 55.0234C101.773 55.0964 101.745 55.1484 101.688 55.1797C101.63 55.2057 101.56 55.224 101.477 55.2344C101.393 55.2396 101.302 55.2474 101.203 55.2578C101.104 55.263 101.013 55.2812 100.93 55.3125C100.846 55.3385 100.776 55.388 100.719 55.4609C100.661 55.5286 100.633 55.6302 100.633 55.7656C100.633 55.7812 100.635 55.8151 100.641 55.8672C100.646 55.9141 100.648 55.9427 100.648 55.9531L101.93 59.4375C101.94 59.4635 101.956 59.5026 101.977 59.5547C102.003 59.6016 102.036 59.625 102.078 59.625C102.099 59.625 102.12 59.6146 102.141 59.5938C102.167 59.5677 102.188 59.5391 102.203 59.5078C102.224 59.4766 102.24 59.4479 102.25 59.4219C102.26 59.3906 102.268 59.3698 102.273 59.3594L103.438 56.3047C103.458 56.2474 103.469 56.1849 103.469 56.1172C103.469 55.9922 103.44 55.8828 103.383 55.7891C103.331 55.6901 103.263 55.6094 103.18 55.5469C103.096 55.4792 103.008 55.4297 102.914 55.3984C102.826 55.3672 102.745 55.3516 102.672 55.3516C102.568 55.3516 102.464 55.3255 102.359 55.2734C102.26 55.2214 102.211 55.138 102.211 55.0234C102.211 54.9818 102.229 54.9375 102.266 54.8906C102.302 54.8385 102.341 54.8125 102.383 54.8125H105.516C105.557 54.8229 105.581 54.8568 105.586 54.9141C105.596 54.9661 105.602 55.0052 105.602 55.0312C105.602 55.0677 105.596 55.099 105.586 55.125C105.576 55.151 105.549 55.1771 105.508 55.2031C105.471 55.224 105.417 55.2448 105.344 55.2656C105.276 55.2812 105.185 55.2995 105.07 55.3203C104.956 55.3411 104.854 55.3958 104.766 55.4844C104.682 55.5677 104.604 55.6667 104.531 55.7812C104.464 55.8958 104.404 56.0156 104.352 56.1406C104.299 56.2604 104.25 56.3698 104.203 56.4688C103.854 57.3802 103.557 58.1484 103.312 58.7734C103.073 59.3984 102.872 59.9141 102.711 60.3203C102.555 60.7266 102.432 61.0417 102.344 61.2656C102.26 61.4896 102.198 61.6536 102.156 61.7578C102.115 61.862 102.089 61.9271 102.078 61.9531C102.073 61.974 102.07 61.9844 102.07 61.9844C102.055 62.0208 102.034 62.0677 102.008 62.125C101.982 62.1823 101.948 62.2109 101.906 62.2109H101.109C101.068 62.2109 101.031 62.1797 101 62.1172C100.974 62.0599 100.953 62.0104 100.938 61.9688L99.2422 57.3906L97.4688 61.9844C97.4531 62.0208 97.4297 62.0677 97.3984 62.125C97.3724 62.1823 97.3385 62.2109 97.2969 62.2109H96.1328Z" fill="#292929"/>
<circle cx="9" cy="95" r="6.5" stroke="#C0A67B"/>
<path d="M30.1953 98.5156C30.1953 98.6927 30.2214 98.8411 30.2734 98.9609C30.3307 99.0807 30.4089 99.1771 30.5078 99.25C30.612 99.3229 30.737 99.375 30.8828 99.4062C31.0339 99.4375 31.2005 99.4531 31.3828 99.4531C31.4245 99.4531 31.4453 99.474 31.4453 99.5156V99.9375C31.4453 99.9531 31.4427 99.9688 31.4375 99.9844C31.4323 99.9948 31.4141 100 31.3828 100H26.7656C26.7396 100 26.7214 99.9922 26.7109 99.9766C26.7057 99.9609 26.7031 99.9479 26.7031 99.9375V99.5156C26.7031 99.5052 26.7057 99.4922 26.7109 99.4766C26.7214 99.4609 26.7396 99.4531 26.7656 99.4531C26.9479 99.4531 27.112 99.4427 27.2578 99.4219C27.4089 99.3958 27.5365 99.3438 27.6406 99.2656C27.7448 99.1875 27.8255 99.0755 27.8828 98.9297C27.9401 98.7839 27.9688 98.5859 27.9688 98.3359V90.4688C27.9688 90.2917 27.9401 90.1432 27.8828 90.0234C27.8307 89.9036 27.7526 89.8073 27.6484 89.7344C27.5495 89.6615 27.4245 89.6094 27.2734 89.5781C27.1276 89.5469 26.9635 89.5312 26.7812 89.5312C26.7396 89.5312 26.7188 89.5104 26.7188 89.4688V89.0469C26.7188 89.0052 26.7396 88.9844 26.7812 88.9844H31.3984C31.4245 88.9844 31.4401 88.9922 31.4453 89.0078C31.4557 89.0234 31.4609 89.0365 31.4609 89.0469V89.4688C31.4609 89.4792 31.4557 89.4922 31.4453 89.5078C31.4401 89.5234 31.4245 89.5312 31.3984 89.5312C31.2161 89.5312 31.0495 89.5443 30.8984 89.5703C30.7526 89.5911 30.6276 89.6406 30.5234 89.7188C30.4193 89.7969 30.3385 89.9089 30.2812 90.0547C30.224 90.2005 30.1953 90.3984 30.1953 90.6484V98.5156ZM35.3516 92.4219C35.3724 92.4115 35.3932 92.401 35.4141 92.3906C35.4401 92.3802 35.4583 92.375 35.4688 92.375C35.5573 92.375 35.6016 92.4375 35.6016 92.5625V93.7812C35.6172 93.8333 35.638 93.8594 35.6641 93.8594C35.6901 93.8594 35.7109 93.8594 35.7266 93.8594C35.7422 93.8542 35.763 93.8438 35.7891 93.8281C36.1224 93.6562 36.4036 93.513 36.6328 93.3984C36.8672 93.2786 37.0677 93.1797 37.2344 93.1016C37.4062 93.0182 37.5573 92.9557 37.6875 92.9141C37.8229 92.8672 37.9583 92.8333 38.0938 92.8125C38.2292 92.7865 38.3776 92.7708 38.5391 92.7656C38.7005 92.7604 38.8984 92.7578 39.1328 92.7578C39.388 92.7578 39.6094 92.8125 39.7969 92.9219C39.9844 93.0312 40.1406 93.1771 40.2656 93.3594C40.3958 93.5365 40.5 93.7422 40.5781 93.9766C40.6615 94.2057 40.724 94.4427 40.7656 94.6875C40.8073 94.9271 40.8359 95.1667 40.8516 95.4062C40.8672 95.6406 40.875 95.8542 40.875 96.0469C40.875 96.2292 40.8698 96.3984 40.8594 96.5547C40.8542 96.7109 40.8464 96.8828 40.8359 97.0703C40.8307 97.2526 40.8229 97.4609 40.8125 97.6953C40.8073 97.9297 40.8047 98.2135 40.8047 98.5469C40.8047 98.7031 40.8333 98.8333 40.8906 98.9375C40.9479 99.0417 41.0208 99.1276 41.1094 99.1953C41.2031 99.263 41.3047 99.3151 41.4141 99.3516C41.5234 99.3828 41.6302 99.4089 41.7344 99.4297C41.8385 99.4505 41.9323 99.4688 42.0156 99.4844C42.1042 99.4948 42.1719 99.5104 42.2188 99.5312C42.2396 99.5417 42.2578 99.5755 42.2734 99.6328C42.2891 99.6901 42.2969 99.7318 42.2969 99.7578C42.2969 99.7891 42.2917 99.8359 42.2812 99.8984C42.2708 99.9557 42.25 99.9896 42.2188 100H37.8594C37.8281 99.9896 37.8073 99.9557 37.7969 99.8984C37.7865 99.8359 37.7812 99.7891 37.7812 99.7578C37.7812 99.7318 37.7891 99.6901 37.8047 99.6328C37.8203 99.5755 37.8385 99.5417 37.8594 99.5312C37.9271 99.5 38.0156 99.4766 38.125 99.4609C38.2396 99.4401 38.3542 99.3984 38.4688 99.3359C38.5885 99.2734 38.6953 99.1797 38.7891 99.0547C38.888 98.9245 38.9531 98.7344 38.9844 98.4844C38.9948 98.4062 39.0026 98.3333 39.0078 98.2656C39.0182 98.1979 39.026 98.1302 39.0312 98.0625C39.0365 97.9896 39.0391 97.9115 39.0391 97.8281C39.0443 97.7448 39.0469 97.6484 39.0469 97.5391C39.0469 97.3047 39.0443 97.0547 39.0391 96.7891C39.0339 96.5234 39.0312 96.2266 39.0312 95.8984C39.0312 95.6432 39.0182 95.3906 38.9922 95.1406C38.9714 94.8906 38.9141 94.6667 38.8203 94.4688C38.7318 94.2708 38.599 94.1094 38.4219 93.9844C38.2448 93.8594 38 93.7969 37.6875 93.7969C37.5781 93.7969 37.4792 93.8047 37.3906 93.8203C37.3073 93.8307 37.2031 93.8594 37.0781 93.9062C36.9583 93.9531 36.7995 94.0234 36.6016 94.1172C36.4036 94.2109 36.138 94.3385 35.8047 94.5C35.763 94.526 35.7188 94.5573 35.6719 94.5938C35.6302 94.625 35.6068 94.6667 35.6016 94.7188V98.5469C35.6016 98.7812 35.6484 98.9609 35.7422 99.0859C35.8359 99.2057 35.9453 99.2943 36.0703 99.3516C36.1953 99.4036 36.3203 99.4401 36.4453 99.4609C36.5703 99.4766 36.6667 99.5 36.7344 99.5312C36.7552 99.5417 36.7734 99.5755 36.7891 99.6328C36.8047 99.6901 36.8125 99.7318 36.8125 99.7578C36.8125 99.7891 36.8073 99.8359 36.7969 99.8984C36.7865 99.9557 36.7656 99.9896 36.7344 100H32.6562C32.625 99.9896 32.6042 99.9557 32.5938 99.8984C32.5833 99.8359 32.5781 99.7891 32.5781 99.7578C32.5781 99.7318 32.5859 99.6901 32.6016 99.6328C32.6172 99.5755 32.6354 99.5417 32.6562 99.5312C32.724 99.5 32.8203 99.4766 32.9453 99.4609C33.0703 99.4401 33.1953 99.4036 33.3203 99.3516C33.4453 99.2943 33.5547 99.2057 33.6484 99.0859C33.7422 98.9609 33.7891 98.7812 33.7891 98.5469V94.5781C33.7891 94.4531 33.7552 94.3568 33.6875 94.2891C33.6198 94.2161 33.5339 94.1615 33.4297 94.125C33.3255 94.0885 33.2135 94.0599 33.0938 94.0391C32.974 94.013 32.8594 93.9844 32.75 93.9531C32.7188 93.9427 32.6927 93.9297 32.6719 93.9141C32.6562 93.8932 32.6484 93.8542 32.6484 93.7969C32.6484 93.7708 32.6562 93.7448 32.6719 93.7188C32.6875 93.6927 32.7188 93.6667 32.7656 93.6406L35.3516 92.4219ZM45.4609 100.211C45.4193 100.211 45.3828 100.18 45.3516 100.117C45.3255 100.06 45.3047 100.01 45.2891 99.9688L43.1719 94.2266C43.0833 93.987 42.9557 93.7786 42.7891 93.6016C42.6224 93.4193 42.4193 93.2891 42.1797 93.2109C42.1432 93.2005 42.099 93.1927 42.0469 93.1875C41.9948 93.1823 41.9427 93.1745 41.8906 93.1641C41.8438 93.1536 41.8021 93.1354 41.7656 93.1094C41.7344 93.0833 41.7188 93.0417 41.7188 92.9844C41.7188 92.9323 41.7318 92.8854 41.7578 92.8438C41.7839 92.7969 41.8281 92.7734 41.8906 92.7734H46C46.0312 92.7734 46.0521 92.8021 46.0625 92.8594C46.0729 92.9115 46.0781 92.9453 46.0781 92.9609C46.0781 93.0339 46.0495 93.0833 45.9922 93.1094C45.9349 93.1302 45.862 93.1432 45.7734 93.1484C45.6849 93.1536 45.5911 93.1562 45.4922 93.1562C45.3932 93.151 45.2995 93.1615 45.2109 93.1875C45.1224 93.2135 45.0495 93.2604 44.9922 93.3281C44.9349 93.3906 44.9062 93.4896 44.9062 93.625C44.9062 93.6406 44.9141 93.6745 44.9297 93.7266C44.9453 93.7734 44.9531 93.8021 44.9531 93.8125L46.5078 98.0625C46.5182 98.0885 46.5339 98.1276 46.5547 98.1797C46.5807 98.2266 46.6146 98.25 46.6562 98.25C46.6771 98.25 46.6979 98.2396 46.7188 98.2188C46.7448 98.1927 46.7656 98.1641 46.7812 98.1328C46.7969 98.1016 46.8099 98.0729 46.8203 98.0469C46.8307 98.0156 46.8385 97.9948 46.8438 97.9844C47.0885 97.3594 47.2943 96.8333 47.4609 96.4062C47.6276 95.974 47.7656 95.6146 47.875 95.3281C47.9844 95.0417 48.0677 94.8177 48.125 94.6562C48.1875 94.4896 48.2318 94.362 48.2578 94.2734C48.2839 94.1849 48.2995 94.1224 48.3047 94.0859C48.3099 94.0443 48.3125 94.0052 48.3125 93.9688C48.3125 93.7865 48.2552 93.638 48.1406 93.5234C48.026 93.4036 47.8854 93.3125 47.7188 93.25C47.6719 93.2396 47.612 93.2344 47.5391 93.2344C47.4714 93.2344 47.4036 93.2292 47.3359 93.2188C47.2734 93.2083 47.2161 93.1875 47.1641 93.1562C47.1172 93.125 47.0938 93.0729 47.0938 93C47.0938 92.9583 47.1146 92.9167 47.1562 92.875C47.1979 92.8333 47.2396 92.8125 47.2812 92.8125H50.3984C50.4297 92.8177 50.4479 92.8385 50.4531 92.875C50.4635 92.9062 50.4688 92.9505 50.4688 93.0078C50.4688 93.0443 50.4635 93.0729 50.4531 93.0938C50.4427 93.1094 50.4167 93.125 50.375 93.1406C50.3385 93.151 50.2839 93.1615 50.2109 93.1719C50.1432 93.1823 50.0521 93.1979 49.9375 93.2188C49.8229 93.2396 49.7214 93.2943 49.6328 93.3828C49.5495 93.4661 49.4714 93.5651 49.3984 93.6797C49.3307 93.7943 49.2708 93.9141 49.2188 94.0391C49.1667 94.1589 49.1172 94.2682 49.0703 94.3672C48.7161 95.2734 48.4167 96.0417 48.1719 96.6719C47.9323 97.3021 47.7318 97.8255 47.5703 98.2422C47.4089 98.6589 47.2812 98.9844 47.1875 99.2188C47.099 99.4479 47.0312 99.6198 46.9844 99.7344C46.9375 99.849 46.9089 99.9193 46.8984 99.9453C46.888 99.9714 46.8828 99.9844 46.8828 99.9844C46.8672 100.021 46.8438 100.068 46.8125 100.125C46.7865 100.182 46.7526 100.211 46.7109 100.211H45.4609ZM50.3594 96.8359C50.3594 96.2266 50.4453 95.6667 50.6172 95.1562C50.7891 94.6406 51.0365 94.1953 51.3594 93.8203C51.6823 93.4453 52.0755 93.1536 52.5391 92.9453C53.0078 92.737 53.5391 92.6328 54.1328 92.6328C54.3099 92.6328 54.4688 92.6458 54.6094 92.6719C54.75 92.6927 54.8776 92.724 54.9922 92.7656C55.112 92.8021 55.2214 92.849 55.3203 92.9062C55.4245 92.9583 55.5286 93.0156 55.6328 93.0781C55.7526 93.1406 55.888 93.2526 56.0391 93.4141C56.1953 93.5755 56.3411 93.763 56.4766 93.9766C56.612 94.1901 56.7266 94.4193 56.8203 94.6641C56.9141 94.9036 56.9609 95.1354 56.9609 95.3594C56.9609 95.4323 56.9453 95.513 56.9141 95.6016C56.888 95.6849 56.8411 95.7266 56.7734 95.7266H52.1641C52.112 95.7266 52.0755 95.7734 52.0547 95.8672C52.0391 95.9609 52.0312 96.0755 52.0312 96.2109C52.0312 96.6693 52.0964 97.0781 52.2266 97.4375C52.362 97.7917 52.5417 98.0938 52.7656 98.3438C52.9896 98.5885 53.2474 98.776 53.5391 98.9062C53.8307 99.0312 54.138 99.0938 54.4609 99.0938C54.6641 99.0938 54.8594 99.0677 55.0469 99.0156C55.2344 98.9583 55.4141 98.8854 55.5859 98.7969C55.7578 98.7083 55.9193 98.6094 56.0703 98.5C56.2214 98.3906 56.3646 98.2812 56.5 98.1719C56.5312 98.1615 56.5521 98.1562 56.5625 98.1562C56.5781 98.1562 56.599 98.1693 56.625 98.1953C56.6719 98.237 56.7188 98.2865 56.7656 98.3438C56.8125 98.3958 56.849 98.4401 56.875 98.4766C56.8906 98.4922 56.8984 98.5078 56.8984 98.5234C56.8984 98.5391 56.888 98.5573 56.8672 98.5781C56.6953 98.7812 56.4844 98.9818 56.2344 99.1797C55.9844 99.3724 55.7161 99.5469 55.4297 99.7031C55.1484 99.8542 54.8594 99.9766 54.5625 100.07C54.2656 100.164 53.9844 100.211 53.7188 100.211C53.1823 100.211 52.7057 100.115 52.2891 99.9219C51.8724 99.724 51.5208 99.4661 51.2344 99.1484C50.9479 98.8307 50.7292 98.4714 50.5781 98.0703C50.4323 97.6641 50.3594 97.2526 50.3594 96.8359ZM54.9453 95.125C55.0807 95.125 55.1484 95.0651 55.1484 94.9453C55.1484 94.7422 55.1146 94.5521 55.0469 94.375C54.9844 94.1927 54.8932 94.0339 54.7734 93.8984C54.6536 93.7578 54.5078 93.6484 54.3359 93.5703C54.1693 93.4922 53.9818 93.4531 53.7734 93.4531C53.5234 93.4531 53.3047 93.5078 53.1172 93.6172C52.9297 93.7214 52.7708 93.849 52.6406 94C52.5104 94.151 52.4115 94.3073 52.3438 94.4688C52.2812 94.6302 52.25 94.7682 52.25 94.8828C52.25 94.9714 52.263 95.0339 52.2891 95.0703C52.3151 95.1068 52.349 95.125 52.3906 95.125H54.9453ZM59.2734 99.9531C59.2266 99.9531 59.1849 99.9661 59.1484 99.9922C59.112 100.018 59.0755 100.047 59.0391 100.078C59.0078 100.115 58.9766 100.146 58.9453 100.172C58.9141 100.198 58.8776 100.211 58.8359 100.211H58.5547C58.5443 100.211 58.5286 100.135 58.5078 99.9844C58.487 99.8333 58.4635 99.6536 58.4375 99.4453C58.4167 99.2318 58.3984 99.013 58.3828 98.7891C58.3672 98.5599 58.3594 98.3698 58.3594 98.2188C58.3594 98.1354 58.388 98.0833 58.4453 98.0625C58.5078 98.0365 58.5729 98.0234 58.6406 98.0234C58.6771 98.0234 58.7161 98.0365 58.7578 98.0625C58.8047 98.0885 58.8464 98.1224 58.8828 98.1641C58.9245 98.2005 58.9609 98.2396 58.9922 98.2812C59.0234 98.3229 59.0469 98.3594 59.0625 98.3906C59.151 98.5833 59.2396 98.7578 59.3281 98.9141C59.4167 99.0703 59.5182 99.2031 59.6328 99.3125C59.7474 99.4219 59.8828 99.5078 60.0391 99.5703C60.1953 99.6276 60.3828 99.6562 60.6016 99.6562C60.7682 99.6562 60.9036 99.6276 61.0078 99.5703C61.112 99.513 61.1927 99.4375 61.25 99.3438C61.3073 99.25 61.3438 99.1432 61.3594 99.0234C61.3802 98.9036 61.3906 98.7786 61.3906 98.6484C61.3906 98.388 61.3125 98.1693 61.1562 97.9922C61 97.8099 60.8047 97.6406 60.5703 97.4844C60.3411 97.3281 60.0885 97.1693 59.8125 97.0078C59.5417 96.8464 59.2891 96.6589 59.0547 96.4453C58.8255 96.2318 58.6328 95.9792 58.4766 95.6875C58.3203 95.3906 58.2422 95.026 58.2422 94.5938C58.2422 94.3438 58.3203 94.1016 58.4766 93.8672C58.6328 93.6276 58.8359 93.4167 59.0859 93.2344C59.3359 93.0521 59.6146 92.9062 59.9219 92.7969C60.2344 92.6875 60.5443 92.6328 60.8516 92.6328C61.013 92.6328 61.1745 92.6484 61.3359 92.6797C61.5026 92.7057 61.6536 92.737 61.7891 92.7734C61.9297 92.8099 62.0469 92.8464 62.1406 92.8828C62.2396 92.9193 62.3021 92.9453 62.3281 92.9609C62.3646 92.987 62.3932 93.0286 62.4141 93.0859C62.4401 93.138 62.4557 93.224 62.4609 93.3438C62.4714 93.4635 62.4766 93.625 62.4766 93.8281C62.4818 94.026 62.4844 94.2865 62.4844 94.6094C62.4844 94.6979 62.4505 94.763 62.3828 94.8047C62.3203 94.8411 62.2578 94.8594 62.1953 94.8594C62.138 94.8594 62.0807 94.849 62.0234 94.8281C61.9714 94.8073 61.9375 94.7734 61.9219 94.7266C61.8594 94.5651 61.7891 94.4036 61.7109 94.2422C61.6328 94.0755 61.5417 93.9271 61.4375 93.7969C61.3385 93.6615 61.2214 93.5547 61.0859 93.4766C60.9505 93.3932 60.7943 93.3516 60.6172 93.3516C60.513 93.3516 60.4089 93.3646 60.3047 93.3906C60.2005 93.4167 60.1068 93.4688 60.0234 93.5469C59.9401 93.6198 59.8724 93.7214 59.8203 93.8516C59.7734 93.9818 59.75 94.1484 59.75 94.3516C59.75 94.5286 59.8307 94.6927 59.9922 94.8438C60.1589 94.9948 60.3646 95.1484 60.6094 95.3047C60.8542 95.4557 61.1198 95.6198 61.4062 95.7969C61.6979 95.974 61.9661 96.1771 62.2109 96.4062C62.4557 96.6354 62.6589 96.901 62.8203 97.2031C62.987 97.5 63.0703 97.8516 63.0703 98.2578C63.0703 98.5599 62.9922 98.8333 62.8359 99.0781C62.6797 99.3177 62.4792 99.5208 62.2344 99.6875C61.9896 99.8542 61.7161 99.9818 61.4141 100.07C61.1172 100.164 60.8255 100.211 60.5391 100.211C60.3932 100.211 60.2474 100.198 60.1016 100.172C59.9557 100.146 59.8229 100.115 59.7031 100.078C59.5833 100.047 59.4844 100.018 59.4062 99.9922C59.3281 99.9661 59.2839 99.9531 59.2734 99.9531ZM64.8359 93.9766H64.25C64.1771 93.9766 64.1198 93.9583 64.0781 93.9219C64.0365 93.8854 64.013 93.8464 64.0078 93.8047C64.0078 93.7786 64.013 93.75 64.0234 93.7188C64.0339 93.6875 64.0469 93.6667 64.0625 93.6562C64.1667 93.5885 64.2786 93.5104 64.3984 93.4219C64.5234 93.3281 64.6458 93.2318 64.7656 93.1328C64.8854 93.0339 65.0026 92.9349 65.1172 92.8359C65.2318 92.737 65.3333 92.6458 65.4219 92.5625C65.474 92.5052 65.5443 92.4193 65.6328 92.3047C65.7266 92.1901 65.8307 92.0781 65.9453 91.9688C66.0651 91.8542 66.1927 91.7552 66.3281 91.6719C66.4635 91.5833 66.6016 91.5391 66.7422 91.5391C66.7734 91.5391 66.8099 91.5495 66.8516 91.5703C66.8932 91.5911 66.9141 91.6172 66.9141 91.6484C66.9141 91.6849 66.9036 91.7422 66.8828 91.8203C66.8672 91.8932 66.8464 91.9766 66.8203 92.0703C66.7943 92.1641 66.7656 92.263 66.7344 92.3672C66.7031 92.4714 66.6745 92.5729 66.6484 92.6719C66.6484 92.7135 66.6536 92.7474 66.6641 92.7734C66.6797 92.7995 66.7161 92.8151 66.7734 92.8203H68.7656C68.849 92.8203 68.9062 92.8359 68.9375 92.8672C68.9688 92.8932 68.9922 92.9297 69.0078 92.9766C69.0182 93.0026 69.0286 93.0573 69.0391 93.1406C69.0495 93.2188 69.0599 93.3073 69.0703 93.4062C69.0807 93.5 69.0885 93.5964 69.0938 93.6953C69.1042 93.7891 69.1094 93.8672 69.1094 93.9297C69.1094 93.9609 69.0885 93.9766 69.0469 93.9766H66.6953C66.6693 93.9766 66.6536 93.9818 66.6484 93.9922C66.6484 94.0026 66.6484 94.0208 66.6484 94.0469V97.9297C66.6484 98.0964 66.6693 98.2422 66.7109 98.3672C66.7526 98.4922 66.8047 98.5964 66.8672 98.6797C66.9349 98.763 67.0104 98.8255 67.0938 98.8672C67.1771 98.9089 67.2604 98.9297 67.3438 98.9297C67.5833 98.9297 67.7786 98.8958 67.9297 98.8281C68.0807 98.7552 68.2109 98.6771 68.3203 98.5938C68.4297 98.5104 68.526 98.4349 68.6094 98.3672C68.6927 98.2943 68.7865 98.2578 68.8906 98.2578C68.9635 98.2578 69.0052 98.2865 69.0156 98.3438C69.0312 98.401 69.0391 98.4453 69.0391 98.4766C69.0391 98.5443 69.0286 98.599 69.0078 98.6406C68.9922 98.6771 68.9792 98.7057 68.9688 98.7266C68.9635 98.737 68.9349 98.7812 68.8828 98.8594C68.8307 98.9375 68.7604 99.0312 68.6719 99.1406C68.5833 99.25 68.474 99.3672 68.3438 99.4922C68.2188 99.6172 68.0781 99.7344 67.9219 99.8438C67.7656 99.9479 67.5938 100.034 67.4062 100.102C67.224 100.174 67.0312 100.211 66.8281 100.211C66.5469 100.211 66.2839 100.159 66.0391 100.055C65.7943 99.9505 65.5833 99.8125 65.4062 99.6406C65.2292 99.4635 65.0885 99.263 64.9844 99.0391C64.8854 98.8151 64.8359 98.5833 64.8359 98.3438V93.9766ZM78 99.7656C78 99.7969 77.9948 99.8411 77.9844 99.8984C77.974 99.9557 77.9531 99.9896 77.9219 100H73.8438C73.8125 99.9896 73.7917 99.9557 73.7812 99.8984C73.7708 99.8411 73.7656 99.7969 73.7656 99.7656C73.7656 99.7396 73.7734 99.6979 73.7891 99.6406C73.8047 99.5833 73.8229 99.5495 73.8438 99.5391C73.9115 99.5078 74.0078 99.4844 74.1328 99.4688C74.2578 99.4479 74.3828 99.4115 74.5078 99.3594C74.6328 99.3021 74.7422 99.2161 74.8359 99.1016C74.9297 98.9818 74.9766 98.8073 74.9766 98.5781V89.4688C74.9766 89.3438 74.9427 89.2474 74.875 89.1797C74.8073 89.1068 74.7214 89.0521 74.6172 89.0156C74.513 88.9792 74.401 88.9505 74.2812 88.9297C74.1615 88.9036 74.0469 88.875 73.9375 88.8438C73.8698 88.8177 73.8359 88.7448 73.8359 88.625C73.8359 88.599 73.8438 88.5651 73.8594 88.5234C73.875 88.4766 73.9062 88.4401 73.9531 88.4141L76.5391 87.1953C76.5599 87.1849 76.5833 87.1745 76.6094 87.1641C76.6354 87.1536 76.6641 87.1484 76.6953 87.1484C76.737 87.1484 76.763 87.1641 76.7734 87.1953C76.7839 87.2214 76.7891 87.2682 76.7891 87.3359V98.5781C76.7891 98.8073 76.8359 98.9818 76.9297 99.1016C77.0234 99.2161 77.1328 99.3021 77.2578 99.3594C77.3828 99.4115 77.5078 99.4479 77.6328 99.4688C77.7578 99.4844 77.8542 99.5078 77.9219 99.5391C77.9427 99.5495 77.9609 99.5833 77.9766 99.6406C77.9922 99.6979 78 99.7396 78 99.7656ZM82.0859 99.8438C81.9141 99.9635 81.7109 100.057 81.4766 100.125C81.2422 100.193 81.0078 100.227 80.7734 100.227C80.138 100.227 79.6536 100.083 79.3203 99.7969C78.9922 99.5104 78.8281 99.1224 78.8281 98.6328C78.8281 98.3516 78.8906 98.1094 79.0156 97.9062C79.1458 97.7031 79.3359 97.5234 79.5859 97.3672C79.8359 97.2109 80.1432 97.0703 80.5078 96.9453C80.8776 96.8151 81.3047 96.6875 81.7891 96.5625C82.0495 96.4948 82.2578 96.4219 82.4141 96.3438C82.5755 96.2656 82.724 96.1901 82.8594 96.1172C82.9479 96.0703 82.9974 96.0286 83.0078 95.9922C83.0234 95.9557 83.0312 95.9219 83.0312 95.8906V94.5312C83.0312 94.3594 83.0052 94.2005 82.9531 94.0547C82.9062 93.9036 82.8333 93.7734 82.7344 93.6641C82.6354 93.5547 82.5156 93.4688 82.375 93.4062C82.2344 93.3438 82.0755 93.3125 81.8984 93.3125C81.7474 93.3125 81.6068 93.3385 81.4766 93.3906C81.3464 93.4427 81.2344 93.5182 81.1406 93.6172C81.0469 93.7161 80.9714 93.8333 80.9141 93.9688C80.862 94.1042 80.8359 94.2578 80.8359 94.4297C80.8359 94.4453 80.8359 94.4688 80.8359 94.5C80.8411 94.5312 80.8464 94.5651 80.8516 94.6016C80.8568 94.6328 80.862 94.6615 80.8672 94.6875C80.8724 94.7135 80.875 94.7292 80.875 94.7344C80.8698 94.7448 80.8255 94.7656 80.7422 94.7969C80.6641 94.8281 80.5651 94.8646 80.4453 94.9062C80.3307 94.9427 80.2031 94.9818 80.0625 95.0234C79.9219 95.0599 79.7865 95.0964 79.6562 95.1328C79.5312 95.1693 79.4193 95.2031 79.3203 95.2344C79.2266 95.2604 79.1615 95.276 79.125 95.2812C79.0677 95.2812 79.0312 95.2526 79.0156 95.1953C79.0052 95.1328 79 95.0729 79 95.0156C79 94.7135 79.0911 94.4193 79.2734 94.1328C79.4557 93.8464 79.6979 93.5938 80 93.375C80.3073 93.151 80.6589 92.9714 81.0547 92.8359C81.4505 92.7005 81.8594 92.6328 82.2812 92.6328C82.6562 92.6328 82.9922 92.6823 83.2891 92.7812C83.5859 92.875 83.8385 93.0078 84.0469 93.1797C84.2552 93.3464 84.4141 93.5417 84.5234 93.7656C84.6328 93.9844 84.6875 94.2188 84.6875 94.4688V98.1953C84.6875 98.3307 84.737 98.4531 84.8359 98.5625C84.9401 98.6667 85.0729 98.7188 85.2344 98.7188C85.3281 98.7188 85.4115 98.7031 85.4844 98.6719C85.5625 98.6354 85.6302 98.5964 85.6875 98.5547C85.75 98.5078 85.8021 98.4688 85.8438 98.4375C85.8854 98.401 85.9219 98.3828 85.9531 98.3828C85.9948 98.3828 86.0182 98.401 86.0234 98.4375C86.0286 98.4688 86.0312 98.4974 86.0312 98.5234C86.0312 98.612 86.0182 98.7031 85.9922 98.7969C85.9714 98.8854 85.9323 98.9505 85.875 98.9922C85.6198 99.1849 85.3932 99.3594 85.1953 99.5156C84.9974 99.6667 84.8177 99.7969 84.6562 99.9062C84.4948 100.016 84.349 100.099 84.2188 100.156C84.0885 100.214 83.9661 100.242 83.8516 100.242C83.7474 100.242 83.6536 100.214 83.5703 100.156C83.4922 100.099 83.4219 100.029 83.3594 99.9453C83.3021 99.862 83.2526 99.7734 83.2109 99.6797C83.1693 99.5807 83.1328 99.4896 83.1016 99.4062C83.0755 99.3229 83.0547 99.2552 83.0391 99.2031C83.0234 99.151 83.0104 99.1276 83 99.1328L82.0859 99.8438ZM80.6484 98.4453C80.6484 98.5859 80.6745 98.7005 80.7266 98.7891C80.7839 98.8776 80.8568 98.9453 80.9453 98.9922C81.0339 99.0391 81.1328 99.0729 81.2422 99.0938C81.3568 99.1094 81.474 99.1172 81.5938 99.1172C81.7031 99.1172 81.8385 99.0911 82 99.0391C82.1615 98.9818 82.3177 98.9089 82.4688 98.8203C82.625 98.7266 82.7578 98.6224 82.8672 98.5078C82.9766 98.388 83.0312 98.2682 83.0312 98.1484V96.8594C83.0312 96.8021 83.0104 96.7734 82.9688 96.7734C82.9583 96.7734 82.9479 96.776 82.9375 96.7812L81.125 97.625C81.0521 97.6771 80.9844 97.7266 80.9219 97.7734C80.8646 97.8151 80.8151 97.8672 80.7734 97.9297C80.7318 97.987 80.7005 98.0573 80.6797 98.1406C80.6589 98.2188 80.6484 98.3203 80.6484 98.4453ZM87.3047 93.9766H86.7188C86.6458 93.9766 86.5885 93.9583 86.5469 93.9219C86.5052 93.8854 86.4818 93.8464 86.4766 93.8047C86.4766 93.7786 86.4818 93.75 86.4922 93.7188C86.5026 93.6875 86.5156 93.6667 86.5312 93.6562C86.6354 93.5885 86.7474 93.5104 86.8672 93.4219C86.9922 93.3281 87.1146 93.2318 87.2344 93.1328C87.3542 93.0339 87.4714 92.9349 87.5859 92.8359C87.7005 92.737 87.8021 92.6458 87.8906 92.5625C87.9427 92.5052 88.013 92.4193 88.1016 92.3047C88.1953 92.1901 88.2995 92.0781 88.4141 91.9688C88.5339 91.8542 88.6615 91.7552 88.7969 91.6719C88.9323 91.5833 89.0703 91.5391 89.2109 91.5391C89.2422 91.5391 89.2786 91.5495 89.3203 91.5703C89.362 91.5911 89.3828 91.6172 89.3828 91.6484C89.3828 91.6849 89.3724 91.7422 89.3516 91.8203C89.3359 91.8932 89.3151 91.9766 89.2891 92.0703C89.263 92.1641 89.2344 92.263 89.2031 92.3672C89.1719 92.4714 89.1432 92.5729 89.1172 92.6719C89.1172 92.7135 89.1224 92.7474 89.1328 92.7734C89.1484 92.7995 89.1849 92.8151 89.2422 92.8203H91.2344C91.3177 92.8203 91.375 92.8359 91.4062 92.8672C91.4375 92.8932 91.4609 92.9297 91.4766 92.9766C91.487 93.0026 91.4974 93.0573 91.5078 93.1406C91.5182 93.2188 91.5286 93.3073 91.5391 93.4062C91.5495 93.5 91.5573 93.5964 91.5625 93.6953C91.5729 93.7891 91.5781 93.8672 91.5781 93.9297C91.5781 93.9609 91.5573 93.9766 91.5156 93.9766H89.1641C89.138 93.9766 89.1224 93.9818 89.1172 93.9922C89.1172 94.0026 89.1172 94.0208 89.1172 94.0469V97.9297C89.1172 98.0964 89.138 98.2422 89.1797 98.3672C89.2214 98.4922 89.2734 98.5964 89.3359 98.6797C89.4036 98.763 89.4792 98.8255 89.5625 98.8672C89.6458 98.9089 89.7292 98.9297 89.8125 98.9297C90.0521 98.9297 90.2474 98.8958 90.3984 98.8281C90.5495 98.7552 90.6797 98.6771 90.7891 98.5938C90.8984 98.5104 90.9948 98.4349 91.0781 98.3672C91.1615 98.2943 91.2552 98.2578 91.3594 98.2578C91.4323 98.2578 91.474 98.2865 91.4844 98.3438C91.5 98.401 91.5078 98.4453 91.5078 98.4766C91.5078 98.5443 91.4974 98.599 91.4766 98.6406C91.4609 98.6771 91.4479 98.7057 91.4375 98.7266C91.4323 98.737 91.4036 98.7812 91.3516 98.8594C91.2995 98.9375 91.2292 99.0312 91.1406 99.1406C91.0521 99.25 90.9427 99.3672 90.8125 99.4922C90.6875 99.6172 90.5469 99.7344 90.3906 99.8438C90.2344 99.9479 90.0625 100.034 89.875 100.102C89.6927 100.174 89.5 100.211 89.2969 100.211C89.0156 100.211 88.7526 100.159 88.5078 100.055C88.263 99.9505 88.0521 99.8125 87.875 99.6406C87.6979 99.4635 87.5573 99.263 87.4531 99.0391C87.3542 98.8151 87.3047 98.5833 87.3047 98.3438V93.9766ZM92.3281 96.8359C92.3281 96.2266 92.4141 95.6667 92.5859 95.1562C92.7578 94.6406 93.0052 94.1953 93.3281 93.8203C93.651 93.4453 94.0443 93.1536 94.5078 92.9453C94.9766 92.737 95.5078 92.6328 96.1016 92.6328C96.2786 92.6328 96.4375 92.6458 96.5781 92.6719C96.7188 92.6927 96.8464 92.724 96.9609 92.7656C97.0807 92.8021 97.1901 92.849 97.2891 92.9062C97.3932 92.9583 97.4974 93.0156 97.6016 93.0781C97.7214 93.1406 97.8568 93.2526 98.0078 93.4141C98.1641 93.5755 98.3099 93.763 98.4453 93.9766C98.5807 94.1901 98.6953 94.4193 98.7891 94.6641C98.8828 94.9036 98.9297 95.1354 98.9297 95.3594C98.9297 95.4323 98.9141 95.513 98.8828 95.6016C98.8568 95.6849 98.8099 95.7266 98.7422 95.7266H94.1328C94.0807 95.7266 94.0443 95.7734 94.0234 95.8672C94.0078 95.9609 94 96.0755 94 96.2109C94 96.6693 94.0651 97.0781 94.1953 97.4375C94.3307 97.7917 94.5104 98.0938 94.7344 98.3438C94.9583 98.5885 95.2161 98.776 95.5078 98.9062C95.7995 99.0312 96.1068 99.0938 96.4297 99.0938C96.6328 99.0938 96.8281 99.0677 97.0156 99.0156C97.2031 98.9583 97.3828 98.8854 97.5547 98.7969C97.7266 98.7083 97.888 98.6094 98.0391 98.5C98.1901 98.3906 98.3333 98.2812 98.4688 98.1719C98.5 98.1615 98.5208 98.1562 98.5312 98.1562C98.5469 98.1562 98.5677 98.1693 98.5938 98.1953C98.6406 98.237 98.6875 98.2865 98.7344 98.3438C98.7812 98.3958 98.8177 98.4401 98.8438 98.4766C98.8594 98.4922 98.8672 98.5078 98.8672 98.5234C98.8672 98.5391 98.8568 98.5573 98.8359 98.5781C98.6641 98.7812 98.4531 98.9818 98.2031 99.1797C97.9531 99.3724 97.6849 99.5469 97.3984 99.7031C97.1172 99.8542 96.8281 99.9766 96.5312 100.07C96.2344 100.164 95.9531 100.211 95.6875 100.211C95.151 100.211 94.6745 100.115 94.2578 99.9219C93.8411 99.724 93.4896 99.4661 93.2031 99.1484C92.9167 98.8307 92.6979 98.4714 92.5469 98.0703C92.401 97.6641 92.3281 97.2526 92.3281 96.8359ZM96.9141 95.125C97.0495 95.125 97.1172 95.0651 97.1172 94.9453C97.1172 94.7422 97.0833 94.5521 97.0156 94.375C96.9531 94.1927 96.862 94.0339 96.7422 93.8984C96.6224 93.7578 96.4766 93.6484 96.3047 93.5703C96.138 93.4922 95.9505 93.4531 95.7422 93.4531C95.4922 93.4531 95.2734 93.5078 95.0859 93.6172C94.8984 93.7214 94.7396 93.849 94.6094 94C94.4792 94.151 94.3802 94.3073 94.3125 94.4688C94.25 94.6302 94.2188 94.7682 94.2188 94.8828C94.2188 94.9714 94.2318 95.0339 94.2578 95.0703C94.2839 95.1068 94.3177 95.125 94.3594 95.125H96.9141ZM102.227 92.6641C102.247 92.6536 102.268 92.6432 102.289 92.6328C102.315 92.6224 102.333 92.6172 102.344 92.6172C102.432 92.6172 102.477 92.6797 102.477 92.8047V94.1328C102.477 94.1484 102.477 94.1693 102.477 94.1953C102.482 94.2161 102.497 94.2266 102.523 94.2266C102.549 94.2266 102.57 94.2188 102.586 94.2031C102.602 94.1823 102.617 94.1641 102.633 94.1484C102.727 94.0234 102.831 93.8854 102.945 93.7344C103.065 93.5781 103.19 93.4323 103.32 93.2969C103.456 93.1615 103.594 93.0495 103.734 92.9609C103.875 92.8672 104.013 92.8203 104.148 92.8203C104.242 92.8203 104.365 92.8464 104.516 92.8984C104.667 92.9505 104.812 93.013 104.953 93.0859C105.099 93.1536 105.221 93.2266 105.32 93.3047C105.424 93.3776 105.477 93.4375 105.477 93.4844C105.477 93.5312 105.453 93.6198 105.406 93.75C105.359 93.875 105.299 94.0026 105.227 94.1328C105.159 94.263 105.083 94.3802 105 94.4844C104.922 94.5833 104.849 94.6328 104.781 94.6328H104.766C104.672 94.6016 104.576 94.5651 104.477 94.5234C104.383 94.4766 104.286 94.4323 104.188 94.3906C104.089 94.3438 103.987 94.3073 103.883 94.2812C103.784 94.25 103.682 94.2344 103.578 94.2344C103.422 94.2344 103.276 94.2682 103.141 94.3359C103.005 94.3984 102.888 94.4818 102.789 94.5859C102.695 94.6849 102.62 94.7969 102.562 94.9219C102.505 95.0469 102.477 95.1667 102.477 95.2812V98.5781C102.477 98.7292 102.508 98.8568 102.57 98.9609C102.638 99.0599 102.721 99.1432 102.82 99.2109C102.924 99.2734 103.036 99.3229 103.156 99.3594C103.281 99.3906 103.401 99.4167 103.516 99.4375C103.63 99.4583 103.734 99.4766 103.828 99.4922C103.922 99.5026 103.992 99.5182 104.039 99.5391C104.091 99.5599 104.117 99.6328 104.117 99.7578C104.117 99.9089 104.091 99.9896 104.039 100H99.5312C99.4792 99.9896 99.4531 99.9089 99.4531 99.7578C99.4531 99.6328 99.4792 99.5599 99.5312 99.5391C99.599 99.5078 99.6953 99.4844 99.8203 99.4688C99.9453 99.4479 100.07 99.4115 100.195 99.3594C100.32 99.3021 100.43 99.2161 100.523 99.1016C100.617 98.9818 100.664 98.8073 100.664 98.5781V94.8203C100.664 94.6953 100.63 94.599 100.562 94.5312C100.495 94.4583 100.409 94.4036 100.305 94.3672C100.201 94.3307 100.089 94.3021 99.9688 94.2812C99.849 94.2552 99.7344 94.2266 99.625 94.1953C99.5938 94.1849 99.5677 94.1719 99.5469 94.1562C99.5312 94.1354 99.5234 94.0964 99.5234 94.0391C99.5234 94.013 99.5312 93.987 99.5469 93.9609C99.5625 93.9349 99.5938 93.9089 99.6406 93.8828L102.227 92.6641Z" fill="#292929"/>
<rect y="16" width="121" height="10" fill="#E0D2B9"/>
<rect x="126" y="16" width="108" height="10" fill="#E0D2B9"/>
<line x1="233.397" y1="2.03386" x2="2.03386" y2="127.603" stroke="#003257" stroke-width="3" stroke-linecap="round"/>
</svg>
